<svg width="200" height="60" viewBox="0 0 200 60" fill="none" xmlns="http://www.w3.org/2000/svg">
<rect width="200" height="60" rx="5" fill="#333333"/>
<path d="M83.912 43.066H80.222L79.43 46H76.91L80.654 34.246H83.588L87.314 46H84.704L83.912 43.066ZM83.408 41.158L83.084 39.952C82.94 39.424 82.724 38.596 82.436 37.468L82.094 36.136H82.022C81.662 37.684 81.344 38.956 81.068 39.952L80.744 41.158H83.408ZM88.4545 37.09H90.4525L90.6325 37.99H90.7045C91.0765 37.654 91.4845 37.384 91.9285 37.18C92.3845 36.976 92.8345 36.874 93.2785 36.874C94.3585 36.874 95.2105 37.282 95.8345 38.098C96.4585 38.914 96.7705 40.018 96.7705 41.41C96.7705 42.382 96.5965 43.234 96.2485 43.966C95.9005 44.698 95.4385 45.256 94.8625 45.64C94.2865 46.024 93.6685 46.216 93.0085 46.216C92.2525 46.216 91.5265 45.898 90.8305 45.262L90.9025 46.702V49.384H88.4545V37.09ZM92.4505 44.2C92.9785 44.2 93.4105 43.966 93.7465 43.498C94.0825 43.03 94.2505 42.34 94.2505 41.428C94.2505 39.736 93.6925 38.89 92.5765 38.89C92.0245 38.89 91.4665 39.178 90.9025 39.754V43.57C91.3825 43.99 91.8985 44.2 92.4505 44.2ZM98.7201 37.09H100.718L100.898 37.99H100.97C101.342 37.654 101.75 37.384 102.194 37.18C102.65 36.976 103.1 36.874 103.544 36.874C104.624 36.874 105.476 37.282 106.1 38.098C106.724 38.914 107.036 40.018 107.036 41.41C107.036 42.382 106.862 43.234 106.514 43.966C106.166 44.698 105.704 45.256 105.128 45.64C104.552 46.024 103.934 46.216 103.274 46.216C102.518 46.216 101.792 45.898 101.096 45.262L101.168 46.702V49.384H98.7201V37.09ZM102.716 44.2C103.244 44.2 103.676 43.966 104.012 43.498C104.348 43.03 104.516 42.34 104.516 41.428C104.516 39.736 103.958 38.89 102.842 38.89C102.29 38.89 101.732 39.178 101.168 39.754V43.57C101.648 43.99 102.164 44.2 102.716 44.2ZM111.272 46.216C110.468 46.216 109.886 45.97 109.526 45.478C109.166 44.986 108.986 44.29 108.986 43.39V33.346H111.434V43.498C111.434 43.75 111.482 43.936 111.578 44.056C111.674 44.164 111.782 44.218 111.902 44.218C112.022 44.218 112.13 44.206 112.226 44.182L112.532 46.018C112.184 46.15 111.764 46.216 111.272 46.216ZM121.428 41.14C121.428 41.596 121.392 41.968 121.32 42.256H115.812C115.932 42.964 116.22 43.486 116.676 43.822C117.144 44.158 117.684 44.326 118.296 44.326C118.932 44.326 119.592 44.128 120.276 43.732L121.086 45.226C120.642 45.538 120.144 45.784 119.592 45.964C119.052 46.132 118.512 46.216 117.972 46.216C117.132 46.216 116.37 46.03 115.686 45.658C115.014 45.286 114.48 44.746 114.084 44.038C113.7 43.33 113.508 42.502 113.508 41.554C113.508 40.618 113.7 39.796 114.084 39.088C114.48 38.38 114.996 37.834 115.632 37.45C116.268 37.066 116.946 36.874 117.666 36.874C118.878 36.874 119.808 37.27 120.456 38.062C121.104 38.842 121.428 39.868 121.428 41.14ZM119.322 40.618C119.322 40.042 119.19 39.592 118.926 39.268C118.662 38.932 118.26 38.764 117.72 38.764C117.276 38.764 116.88 38.92 116.532 39.232C116.196 39.532 115.968 39.994 115.848 40.618H119.322ZM130.642 46.216C129.85 46.216 129.076 46.072 128.32 45.784C127.564 45.484 126.898 45.058 126.322 44.506L127.744 42.814C128.176 43.198 128.65 43.504 129.166 43.732C129.694 43.96 130.204 44.074 130.696 44.074C131.272 44.074 131.71 43.966 132.01 43.75C132.322 43.522 132.478 43.21 132.478 42.814C132.478 42.562 132.406 42.352 132.262 42.184C132.13 42.016 131.956 41.878 131.74 41.77C131.536 41.662 131.2 41.512 130.732 41.32L129.184 40.654C128.488 40.366 127.918 39.964 127.474 39.448C127.03 38.92 126.808 38.26 126.808 37.468C126.808 36.832 126.982 36.256 127.33 35.74C127.69 35.212 128.182 34.798 128.806 34.498C129.43 34.186 130.132 34.03 130.912 34.03C131.596 34.03 132.268 34.168 132.928 34.444C133.588 34.708 134.158 35.08 134.638 35.56L133.396 37.126C132.988 36.802 132.586 36.562 132.19 36.406C131.794 36.25 131.368 36.172 130.912 36.172C130.42 36.172 130.03 36.274 129.742 36.478C129.454 36.682 129.31 36.964 129.31 37.324C129.31 37.576 129.382 37.786 129.526 37.954C129.682 38.122 129.868 38.26 130.084 38.368C130.312 38.476 130.66 38.626 131.128 38.818L132.64 39.43C133.396 39.742 133.978 40.156 134.386 40.672C134.794 41.176 134.998 41.824 134.998 42.616C134.998 43.276 134.824 43.882 134.476 44.434C134.128 44.974 133.624 45.406 132.964 45.73C132.304 46.054 131.53 46.216 130.642 46.216ZM139.65 46.216C138.618 46.216 137.862 45.922 137.382 45.334C136.902 44.734 136.662 43.9 136.662 42.832V39.034H135.42V37.198L136.788 37.09L137.076 34.714H139.11V37.09H141.288V39.034H139.11V42.814C139.11 43.786 139.506 44.272 140.298 44.272C140.55 44.272 140.844 44.212 141.18 44.092L141.576 45.892C140.928 46.108 140.286 46.216 139.65 46.216ZM146.533 46.216C145.765 46.216 145.051 46.03 144.391 45.658C143.743 45.286 143.221 44.746 142.825 44.038C142.429 43.33 142.231 42.502 142.231 41.554C142.231 40.594 142.429 39.76 142.825 39.052C143.221 38.344 143.743 37.804 144.391 37.432C145.051 37.06 145.765 36.874 146.533 36.874C147.289 36.874 147.997 37.06 148.657 37.432C149.317 37.804 149.845 38.35 150.241 39.07C150.637 39.778 150.835 40.606 150.835 41.554C150.835 42.502 150.637 43.33 150.241 44.038C149.845 44.746 149.317 45.286 148.657 45.658C147.997 46.03 147.289 46.216 146.533 46.216ZM146.533 44.218C147.097 44.218 147.535 43.984 147.847 43.516C148.159 43.036 148.315 42.382 148.315 41.554C148.315 40.726 148.159 40.072 147.847 39.592C147.535 39.112 147.097 38.872 146.533 38.872C145.957 38.872 145.513 39.112 145.201 39.592C144.901 40.072 144.751 40.726 144.751 41.554C144.751 42.382 144.901 43.036 145.201 43.516C145.513 43.984 145.957 44.218 146.533 44.218ZM152.72 37.09H154.718L154.898 38.656H154.97C155.282 38.08 155.66 37.642 156.104 37.342C156.56 37.03 157.022 36.874 157.49 36.874C157.91 36.874 158.258 36.934 158.534 37.054L158.12 39.178C158.084 39.166 157.976 39.142 157.796 39.106C157.616 39.058 157.412 39.034 157.184 39.034C156.8 39.034 156.428 39.172 156.068 39.448C155.708 39.724 155.408 40.156 155.168 40.744V46H152.72V37.09ZM166.92 41.14C166.92 41.596 166.884 41.968 166.812 42.256H161.304C161.424 42.964 161.712 43.486 162.168 43.822C162.636 44.158 163.176 44.326 163.788 44.326C164.424 44.326 165.084 44.128 165.768 43.732L166.578 45.226C166.134 45.538 165.636 45.784 165.084 45.964C164.544 46.132 164.004 46.216 163.464 46.216C162.624 46.216 161.862 46.03 161.178 45.658C160.506 45.286 159.972 44.746 159.576 44.038C159.192 43.33 159 42.502 159 41.554C159 40.618 159.192 39.796 159.576 39.088C159.972 38.38 160.488 37.834 161.124 37.45C161.76 37.066 162.438 36.874 163.158 36.874C164.37 36.874 165.3 37.27 165.948 38.062C166.596 38.842 166.92 39.868 166.92 41.14ZM164.814 40.618C164.814 40.042 164.682 39.592 164.418 39.268C164.154 38.932 163.752 38.764 163.212 38.764C162.768 38.764 162.372 38.92 162.024 39.232C161.688 39.532 161.46 39.994 161.34 40.618H164.814Z" fill="#FBF9FC"/>
<path d="M31.0175 31.7417C30.7075 26.2684 34.5384 20.6818 40.1717 20.6818C41.4689 20.6818 42.0572 20.989 43.4701 21.4368C44.2265 21.6765 45.5084 22.3427 46.2497 22.3427C46.9909 22.3427 47.8804 21.852 49.0802 21.4038C50.7823 20.768 51.789 20.7 52.7724 20.6818C56.0709 20.6818 58.4925 22.0863 60.0364 24.2678C57.488 25.9569 56.145 28.0047 56.0709 31.3265C56.0709 34.3463 57.961 37.2905 61 38.6117C60.2588 41.7824 56.2562 48.3127 52.9577 48.3127C51.8251 48.2467 51.129 48.0666 49.8075 47.5577C48.8228 47.1181 47.5098 46.8028 46.6573 46.8028C45.7679 46.765 44.771 47.0586 43.5257 47.5577C42.4694 47.981 41.8401 48.2213 40.394 48.3127C37.6515 48.486 31.567 41.4427 31.0175 31.7417Z" fill="#FBF9FC"/>
<path d="M48.0286 14.7933C46.4988 16.4713 45.9161 18.6812 46.0273 20.6818C48.5475 20.4931 50.2893 19.4362 51.883 17.4733C53.4766 15.5105 53.4883 14.0842 53.4766 12C51.6217 12.3074 49.474 13.2079 48.0286 14.7933Z" fill="#FBF9FC"/>
<path d="M78.288 13.802H80.542C81.942 13.802 83.006 14.1987 83.734 14.992C84.4713 15.7853 84.84 16.91 84.84 18.366C84.84 19.822 84.4713 20.9607 83.734 21.782C83.006 22.594 81.956 23 80.584 23H78.288V13.802ZM80.458 22.146C81.5593 22.146 82.3853 21.8193 82.936 21.166C83.496 20.5033 83.776 19.57 83.776 18.366C83.776 17.1807 83.496 16.266 82.936 15.622C82.3853 14.978 81.5593 14.656 80.458 14.656H79.324V22.146H80.458ZM89.3659 23.168C88.8059 23.168 88.2879 23.028 87.8119 22.748C87.3359 22.4587 86.9533 22.048 86.6639 21.516C86.3839 20.9747 86.2439 20.34 86.2439 19.612C86.2439 18.884 86.3839 18.2493 86.6639 17.708C86.9533 17.1667 87.3359 16.756 87.8119 16.476C88.2879 16.1867 88.8059 16.042 89.3659 16.042C89.9259 16.042 90.4439 16.1867 90.9199 16.476C91.3959 16.756 91.7739 17.1667 92.0539 17.708C92.3433 18.2493 92.4879 18.884 92.4879 19.612C92.4879 20.34 92.3433 20.9747 92.0539 21.516C91.7739 22.048 91.3959 22.4587 90.9199 22.748C90.4439 23.028 89.9259 23.168 89.3659 23.168ZM89.3659 22.314C89.7673 22.314 90.1219 22.202 90.4299 21.978C90.7473 21.754 90.9946 21.4367 91.1719 21.026C91.3493 20.6153 91.4379 20.144 91.4379 19.612C91.4379 19.08 91.3493 18.6087 91.1719 18.198C90.9946 17.7873 90.7473 17.47 90.4299 17.246C90.1219 17.0127 89.7673 16.896 89.3659 16.896C88.9646 16.896 88.6053 17.0127 88.2879 17.246C87.9799 17.47 87.7373 17.7873 87.5599 18.198C87.3919 18.6087 87.3079 19.08 87.3079 19.612C87.3079 20.424 87.4993 21.0773 87.8819 21.572C88.2646 22.0667 88.7593 22.314 89.3659 22.314ZM93.4415 16.21H94.4915L95.5555 20.256L95.6815 20.858C95.8121 21.418 95.9055 21.8427 95.9615 22.132H96.0175C96.1948 21.404 96.3535 20.7787 96.4935 20.256L97.5855 16.21H98.6075L99.7135 20.256L100.189 22.132H100.245L100.693 20.256L101.729 16.21H102.709L100.861 23H99.6015L98.5655 19.206L98.2995 18.1C98.2808 18.0253 98.2155 17.7453 98.1035 17.26H98.0475C97.8421 18.184 97.6788 18.842 97.5575 19.234L96.5495 23H95.3595L93.4415 16.21ZM104.235 16.21H105.075L105.159 17.218H105.201C105.574 16.8447 105.938 16.5553 106.293 16.35C106.657 16.1447 107.054 16.042 107.483 16.042C108.192 16.042 108.715 16.266 109.051 16.714C109.387 17.1527 109.555 17.8107 109.555 18.688V23H108.533V18.814C108.533 18.1607 108.426 17.6847 108.211 17.386C108.006 17.0873 107.665 16.938 107.189 16.938C106.853 16.938 106.54 17.0267 106.251 17.204C105.962 17.372 105.626 17.6473 105.243 18.03V23H104.235V16.21ZM112.942 23.168C112.56 23.168 112.28 23.0513 112.102 22.818C111.925 22.5753 111.836 22.2207 111.836 21.754V13.004H112.844V21.838C112.844 21.9967 112.872 22.118 112.928 22.202C112.994 22.2767 113.073 22.314 113.166 22.314C113.241 22.314 113.325 22.3047 113.418 22.286L113.558 23.07C113.381 23.1353 113.176 23.168 112.942 23.168ZM117.926 23.168C117.366 23.168 116.848 23.028 116.372 22.748C115.896 22.4587 115.514 22.048 115.224 21.516C114.944 20.9747 114.804 20.34 114.804 19.612C114.804 18.884 114.944 18.2493 115.224 17.708C115.514 17.1667 115.896 16.756 116.372 16.476C116.848 16.1867 117.366 16.042 117.926 16.042C118.486 16.042 119.004 16.1867 119.48 16.476C119.956 16.756 120.334 17.1667 120.614 17.708C120.904 18.2493 121.048 18.884 121.048 19.612C121.048 20.34 120.904 20.9747 120.614 21.516C120.334 22.048 119.956 22.4587 119.48 22.748C119.004 23.028 118.486 23.168 117.926 23.168ZM117.926 22.314C118.328 22.314 118.682 22.202 118.99 21.978C119.308 21.754 119.555 21.4367 119.732 21.026C119.91 20.6153 119.998 20.144 119.998 19.612C119.998 19.08 119.91 18.6087 119.732 18.198C119.555 17.7873 119.308 17.47 118.99 17.246C118.682 17.0127 118.328 16.896 117.926 16.896C117.525 16.896 117.166 17.0127 116.848 17.246C116.54 17.47 116.298 17.7873 116.12 18.198C115.952 18.6087 115.868 19.08 115.868 19.612C115.868 20.424 116.06 21.0773 116.442 21.572C116.825 22.0667 117.32 22.314 117.926 22.314ZM124.246 23.168C123.667 23.168 123.191 23 122.818 22.664C122.444 22.328 122.258 21.8567 122.258 21.25C122.258 20.5127 122.594 19.948 123.266 19.556C123.938 19.1547 125.011 18.8747 126.486 18.716C126.486 18.184 126.374 17.75 126.15 17.414C125.935 17.0687 125.562 16.896 125.03 16.896C124.386 16.896 123.7 17.1433 122.972 17.638L122.566 16.938C123.462 16.3407 124.339 16.042 125.198 16.042C125.982 16.042 126.56 16.2893 126.934 16.784C127.307 17.2693 127.494 17.9413 127.494 18.8V23H126.654L126.57 22.174H126.528C125.725 22.8367 124.964 23.168 124.246 23.168ZM124.512 22.342C124.838 22.342 125.156 22.2673 125.464 22.118C125.781 21.9593 126.122 21.7167 126.486 21.39V19.402C125.319 19.542 124.488 19.7567 123.994 20.046C123.508 20.3353 123.266 20.718 123.266 21.194C123.266 21.5767 123.382 21.866 123.616 22.062C123.849 22.2487 124.148 22.342 124.512 22.342ZM132.001 23.168C131.143 23.168 130.461 22.8553 129.957 22.23C129.463 21.6047 129.215 20.732 129.215 19.612C129.215 18.9027 129.351 18.2773 129.621 17.736C129.892 17.1947 130.251 16.7793 130.699 16.49C131.157 16.1913 131.647 16.042 132.169 16.042C132.533 16.042 132.86 16.1073 133.149 16.238C133.439 16.3687 133.756 16.5693 134.101 16.84L134.059 15.664V13.004H135.067V23H134.227L134.143 22.174H134.101C133.812 22.4727 133.485 22.7153 133.121 22.902C132.767 23.0793 132.393 23.168 132.001 23.168ZM132.225 22.3C132.552 22.3 132.86 22.2207 133.149 22.062C133.448 21.9033 133.751 21.6607 134.059 21.334V17.652C133.761 17.3907 133.471 17.204 133.191 17.092C132.911 16.9707 132.622 16.91 132.323 16.91C131.941 16.91 131.591 17.0267 131.273 17.26C130.965 17.4933 130.718 17.8153 130.531 18.226C130.354 18.6367 130.265 19.0987 130.265 19.612C130.265 20.452 130.433 21.11 130.769 21.586C131.115 22.062 131.6 22.3 132.225 22.3ZM139.225 16.21H140.275L141.619 20.172L142.263 22.16H142.319L142.963 20.172L144.307 16.21H145.315L142.879 23H141.703L139.225 16.21ZM146.672 16.21H147.68V23H146.672V16.21ZM147.19 14.754C146.985 14.754 146.817 14.6887 146.686 14.558C146.556 14.4273 146.49 14.2547 146.49 14.04C146.49 13.8347 146.556 13.6713 146.686 13.55C146.817 13.4193 146.985 13.354 147.19 13.354C147.396 13.354 147.564 13.4193 147.694 13.55C147.825 13.6713 147.89 13.8347 147.89 14.04C147.89 14.2547 147.825 14.4273 147.694 14.558C147.564 14.6887 147.396 14.754 147.19 14.754ZM151.603 23.168C151.024 23.168 150.548 23 150.175 22.664C149.802 22.328 149.615 21.8567 149.615 21.25C149.615 20.5127 149.951 19.948 150.623 19.556C151.295 19.1547 152.368 18.8747 153.843 18.716C153.843 18.184 153.731 17.75 153.507 17.414C153.292 17.0687 152.919 16.896 152.387 16.896C151.743 16.896 151.057 17.1433 150.329 17.638L149.923 16.938C150.819 16.3407 151.696 16.042 152.555 16.042C153.339 16.042 153.918 16.2893 154.291 16.784C154.664 17.2693 154.851 17.9413 154.851 18.8V23H154.011L153.927 22.174H153.885C153.082 22.8367 152.322 23.168 151.603 23.168ZM151.869 22.342C152.196 22.342 152.513 22.2673 152.821 22.118C153.138 21.9593 153.479 21.7167 153.843 21.39V19.402C152.676 19.542 151.846 19.7567 151.351 20.046C150.866 20.3353 150.623 20.718 150.623 21.194C150.623 21.5767 150.74 21.866 150.973 22.062C151.206 22.2487 151.505 22.342 151.869 22.342Z" fill="#FBF9FC"/>
</svg>
