<svg width="704" height="421" viewBox="0 0 704 421" fill="none" xmlns="http://www.w3.org/2000/svg">
<rect width="400" height="233.65" rx="10" transform="matrix(0.944817 0.327599 -0.525072 0.851058 325.219 90.1855)" fill="url(#paint0_linear_195175_3868)"/>
<mask id="mask0_195175_3868" style="mask-type:alpha" maskUnits="userSpaceOnUse" x="202" y="90" width="501" height="330">
<rect width="399.576" height="233.65" transform="matrix(0.944817 0.327599 -0.525072 0.851058 325.219 90.1855)" fill="#ED713C"/>
</mask>
<g mask="url(#mask0_195175_3868)">
<path opacity="0.1" d="M400.837 369.6C385.948 393.732 345.174 412.035 279.862 415.588C216.376 419.043 137.1 407.801 57.7413 380.285C-21.6177 352.768 -84.38 314.761 -121.979 276.257C-160.66 236.646 -168.459 201.501 -153.57 177.369C-138.681 153.236 -97.9073 134.933 -32.5952 131.38C30.8907 127.925 110.167 139.167 189.526 166.684C268.884 194.2 331.647 232.207 369.246 270.711C407.927 310.323 415.726 345.467 400.837 369.6Z" fill="#333333" stroke="#333333" stroke-width="36"/>
<path opacity="0.1" d="M1096.56 322.868C1076.41 355.529 1029.58 379.08 963.022 386.943C897.205 394.717 816.696 386.309 737.791 358.95C658.887 331.591 598.206 291.045 563.488 248.412C528.378 205.296 521.998 163.298 542.149 130.637C562.3 97.9759 609.121 74.425 675.683 66.5624C741.5 58.7879 822.008 67.1966 900.913 94.5555C979.818 121.914 1040.5 162.461 1075.22 205.094C1110.33 248.21 1116.71 290.207 1096.56 322.868Z" fill="#333333" stroke="#333333" stroke-width="36"/>
</g>
<path d="M524.094 369.151C526.316 369.921 528.625 368.739 530.376 365.9C532.115 363.082 531.805 360.987 529.602 360.223C527.394 359.458 525.072 360.635 523.326 363.455C521.577 366.29 521.87 368.374 524.094 369.151ZM524.791 368.021C523.49 367.57 523.431 366.122 524.768 363.955C526.104 361.799 527.622 360.882 528.918 361.332C530.21 361.78 530.266 363.242 528.934 365.4C527.598 367.566 526.088 368.471 524.791 368.021ZM529.438 370.829L530.955 371.355L539.771 365.3L540.487 364.141L534.126 361.936L533.435 363.057L538.292 364.741L538.253 364.804L529.438 370.829ZM546.053 365.578L544.799 365.143L535.298 374.443L536.552 374.878L546.053 365.578ZM541.631 375.057L547.963 377.252L548.654 376.131L544.324 374.629L544.363 374.566L547.387 373.426C550.137 372.433 551.112 371.842 551.71 370.873C552.569 369.481 551.968 367.978 550.155 367.349C548.356 366.726 546.393 367.319 545.417 368.901L546.803 369.382C547.372 368.449 548.415 368.071 549.453 368.431C550.43 368.77 550.838 369.569 550.306 370.432C549.833 371.198 548.987 371.572 547.345 372.2L542.216 374.109L541.631 375.057ZM553.028 379.152C555.028 379.866 557.166 379.026 558.188 377.361C559.216 375.704 558.61 374.051 556.943 373.473C555.928 373.121 554.778 373.257 553.834 373.818L553.763 373.793C554.982 371.827 556.529 370.946 557.938 371.435C558.863 371.756 559.133 372.465 558.886 373.253L560.319 373.75C560.944 372.302 560.362 370.889 558.643 370.292C556.407 369.517 553.944 370.764 552.086 373.777C550.113 376.965 551.326 378.547 553.028 379.152ZM553.702 378.051C552.584 377.663 552.289 376.533 552.89 375.56C553.492 374.593 554.869 374.043 555.978 374.428C557.077 374.809 557.391 375.888 556.768 376.89C556.141 377.915 554.802 378.432 553.702 378.051Z" fill="white"/>
<path d="M302.808 289.149L308.877 291.254L309.451 290.323L304.979 288.772L305.021 288.705L308.466 287.372C311.104 286.35 312.052 285.775 312.644 284.815C313.469 283.478 312.924 281.994 311.233 281.408C309.547 280.823 307.628 281.411 306.688 282.934L307.797 283.319C308.405 282.333 309.519 281.923 310.632 282.309C311.675 282.671 312.118 283.523 311.554 284.437C311.061 285.236 310.174 285.648 308.385 286.358L303.278 288.388L302.808 289.149ZM311.481 290L316.009 291.57L314.913 293.347L316.021 293.731L317.118 291.954L318.433 292.41L319.007 291.479L317.692 291.023L321.367 285.066L319.958 284.577L312.013 289.136L311.481 290ZM316.583 290.639L313.314 289.505L313.356 289.437L319.359 285.992L319.434 286.018L316.583 290.639ZM322.218 296.023C324.149 296.719 326.232 295.838 327.227 294.226C328.26 292.551 327.625 290.872 325.977 290.3C324.986 289.957 323.867 290.098 322.899 290.63L322.824 290.604C324.131 288.495 325.797 287.588 327.286 288.104C328.301 288.456 328.556 289.243 328.292 290.096L329.438 290.494C330.034 289.067 329.476 287.733 327.86 287.173C325.695 286.422 323.301 287.688 321.411 290.751C319.435 293.954 320.65 295.459 322.218 296.023ZM322.792 295.093C321.585 294.674 321.273 293.441 321.918 292.406C322.562 291.371 324.059 290.765 325.252 291.179C326.431 291.588 326.762 292.761 326.099 293.835C325.421 294.936 323.971 295.501 322.792 295.093ZM330.359 298.846C332.28 299.512 334.243 298.965 335.122 297.56C335.788 296.461 335.55 295.248 334.619 294.715L334.65 294.664C335.683 294.765 336.765 294.175 337.344 293.256C338.149 291.932 337.524 290.524 335.852 289.944C334.161 289.358 332.324 289.913 331.519 291.236C330.941 292.155 331.042 293.156 331.832 293.687L331.801 293.737C330.637 293.544 329.25 294.193 328.583 295.293C327.705 296.698 328.419 298.174 330.359 298.846ZM330.934 297.915C329.614 297.458 329.177 296.567 329.761 295.639C330.354 294.658 331.682 294.271 332.918 294.7C334.134 295.122 334.601 296.131 334.007 297.111C333.423 298.039 332.235 298.367 330.934 297.915ZM333.471 293.803C332.419 293.438 332.042 292.588 332.605 291.695C333.138 290.811 334.207 290.483 335.288 290.858C336.349 291.226 336.708 292.049 336.175 292.932C335.612 293.826 334.504 294.161 333.471 293.803Z" fill="white"/>
<circle cx="2.53967" cy="2.53967" r="2.53967" transform="matrix(0.944817 0.327599 -0.525072 0.851058 279.688 274.934)" fill="white"/>
<circle cx="2.53967" cy="2.53967" r="2.53967" transform="matrix(0.944817 0.327599 -0.525072 0.851058 255.691 266.614)" fill="white"/>
<circle cx="2.53967" cy="2.53967" r="2.53967" transform="matrix(0.944817 0.327599 -0.525072 0.851058 267.689 270.774)" fill="white"/>
<circle cx="2.53967" cy="2.53967" r="2.53967" transform="matrix(0.944817 0.327599 -0.525072 0.851058 243.694 262.454)" fill="white"/>
<path opacity="0.75" d="M265.274 242.734C265.973 241.048 265.164 239.641 263.421 239.036C261.287 238.296 258.825 239.19 257.359 241.566C255.893 243.941 256.571 245.924 258.713 246.667C260.525 247.295 262.481 246.732 263.657 245.356L262.403 244.917C261.603 245.793 260.395 246.008 259.352 245.647C257.939 245.157 257.474 243.811 258.595 241.994C259.707 240.192 261.381 239.57 262.802 240.063C263.853 240.428 264.406 241.266 264.018 242.299L265.274 242.734ZM265.298 248.976C266.32 249.331 267.185 249.063 267.672 248.725L267.72 248.742L267.25 249.504L268.426 249.911L270.708 246.212C271.708 244.591 270.49 243.777 269.508 243.436C268.388 243.048 267.107 243.097 266.078 243.973L267.066 244.597C267.487 244.263 268.173 244.039 268.982 244.319C269.759 244.589 269.932 245.093 269.543 245.724L269.527 245.75C269.283 246.145 268.837 245.981 267.654 245.712C266.406 245.429 265.036 245.289 264.255 246.554C263.58 247.65 264.122 248.569 265.298 248.976ZM266.097 248.197C265.416 247.961 265.095 247.515 265.426 246.978C265.784 246.398 266.483 246.389 267.231 246.547C267.651 246.636 268.635 246.862 268.905 246.766L268.462 247.485C268.054 248.145 267.099 248.544 266.097 248.197ZM270.029 250.467L271.233 250.885L273.332 247.483C273.782 246.754 274.73 246.444 275.584 246.74C275.833 246.827 276.09 246.964 276.171 247.023L276.811 245.986C276.7 245.93 276.469 245.836 276.316 245.783C275.591 245.532 274.743 245.687 274.148 246.207L274.084 246.185L274.63 245.3L273.466 244.897L270.029 250.467ZM281.07 247.533L279.801 247.093L280.625 245.759L279.421 245.341L278.597 246.676L277.692 246.362L277.155 247.232L278.06 247.546L276.031 250.836C275.403 251.846 275.958 252.633 276.92 252.944C277.304 253.073 277.602 253.097 277.772 253.099L278.108 252.128C278.018 252.114 277.849 252.095 277.656 252.028C277.265 251.893 276.986 251.656 277.374 251.028L279.264 247.964L280.533 248.403L281.07 247.533ZM280.688 254.313C281.711 254.667 282.575 254.399 283.062 254.061L283.11 254.078L282.64 254.84L283.816 255.247L286.098 251.548C287.098 249.927 285.88 249.113 284.898 248.772C283.779 248.384 282.497 248.433 281.468 249.309L282.456 249.933C282.877 249.599 283.563 249.375 284.373 249.656C285.15 249.925 285.322 250.429 284.933 251.061L284.917 251.086C284.673 251.481 284.227 251.318 283.044 251.048C281.796 250.765 280.426 250.625 279.646 251.891C278.97 252.986 279.512 253.905 280.688 254.313ZM281.487 253.533C280.806 253.297 280.485 252.851 280.816 252.314C281.174 251.734 281.874 251.726 282.622 251.884C283.041 251.972 284.025 252.199 284.295 252.103L283.852 252.821C283.444 253.481 282.489 253.881 281.487 253.533ZM284.122 247.772C284.317 247.457 284.675 247.295 284.973 247.398C285.545 247.597 285.378 248.137 286.139 248.401C286.845 248.642 287.695 248.342 288.194 247.533L287.43 247.211C287.231 247.525 286.87 247.691 286.56 247.583C286.021 247.396 286.049 246.812 285.393 246.584C284.684 246.338 283.821 246.669 283.326 247.47L284.122 247.772ZM287.955 256.819C289.698 257.424 291.547 256.669 292.61 254.946C293.679 253.213 293.249 251.668 291.506 251.064C289.763 250.459 287.914 251.214 286.844 252.947C285.782 254.67 286.212 256.215 287.955 256.819ZM288.521 255.91C287.381 255.515 287.402 254.435 288.062 253.365C288.72 252.299 289.811 251.577 290.951 251.972C292.082 252.364 292.054 253.455 291.396 254.521C290.736 255.591 289.652 256.302 288.521 255.91ZM297.499 260.124C298.627 260.515 299.452 260.048 299.889 259.768L299.99 259.803L299.455 260.67L300.63 261.078L305.213 253.65L304.009 253.233L302.306 255.993L302.234 255.967C302.229 255.548 302.208 254.774 301.056 254.375C299.562 253.857 297.808 254.538 296.693 256.345C295.581 258.147 295.998 259.603 297.499 260.124ZM298.336 259.291C297.261 258.919 297.227 257.872 297.916 256.755C298.598 255.649 299.658 255.008 300.745 255.385C301.796 255.75 301.883 256.718 301.165 257.882C300.442 259.053 299.374 259.651 298.336 259.291ZM304.945 262.71C306.293 263.178 307.617 262.91 308.45 262.098L307.425 261.518C306.883 261.969 306.194 262.056 305.509 261.818C304.479 261.461 304.158 260.619 304.788 259.534L309.184 261.059L309.421 260.674C310.663 258.661 309.812 257.411 308.411 256.925C306.688 256.328 304.823 257.116 303.767 258.828C302.7 260.558 303.121 262.077 304.945 262.71ZM305.293 258.723C305.829 257.949 306.888 257.484 307.866 257.824C308.8 258.148 309.028 258.983 308.506 259.837L305.293 258.723ZM314.539 266.037C316.001 266.543 317.434 266.081 318.236 265.043L317.065 264.636C316.54 265.185 315.802 265.361 315.113 265.122C314.095 264.769 313.91 263.776 314.66 262.561C315.396 261.368 316.528 260.849 317.534 261.198C318.299 261.463 318.498 262.06 318.304 262.627L319.476 263.033C320.041 261.864 319.483 260.764 318.078 260.277C316.335 259.672 314.478 260.464 313.428 262.165C312.392 263.844 312.743 265.414 314.539 266.037ZM318.436 267.251L319.64 267.669L321.739 264.267C322.189 263.538 323.137 263.229 323.991 263.525C324.24 263.611 324.498 263.749 324.579 263.808L325.218 262.77C325.107 262.714 324.876 262.621 324.723 262.568C323.998 262.316 323.15 262.471 322.555 262.992L322.491 262.969L323.037 262.084L321.873 261.681L318.436 267.251ZM325.162 269.72C326.511 270.188 327.834 269.92 328.668 269.108L327.642 268.528C327.1 268.979 326.411 269.066 325.727 268.828C324.696 268.471 324.375 267.629 325.005 266.544L329.402 268.069L329.639 267.684C330.881 265.671 330.03 264.421 328.629 263.935C326.905 263.338 325.041 264.126 323.984 265.838C322.917 267.568 323.338 269.088 325.162 269.72ZM325.51 265.733C326.047 264.959 327.106 264.495 328.084 264.834C329.018 265.158 329.245 265.994 328.723 266.847L325.51 265.733ZM328.499 263.076L329.461 263.409L331.741 262.17L330.473 261.731L328.499 263.076ZM331.468 271.902C332.596 272.293 333.421 271.826 333.858 271.546L333.959 271.581L333.424 272.448L334.6 272.856L339.182 265.428L337.978 265.011L336.275 267.771L336.203 267.746C336.198 267.326 336.177 266.552 335.025 266.153C333.531 265.635 331.777 266.317 330.662 268.123C329.55 269.925 329.967 271.381 331.468 271.902ZM332.305 271.07C331.23 270.697 331.196 269.65 331.885 268.533C332.568 267.427 333.627 266.787 334.715 267.164C335.765 267.528 335.852 268.496 335.134 269.66C334.412 270.831 333.344 271.43 332.305 271.07ZM336.318 273.452L337.522 273.869L340.958 268.298L339.755 267.881L336.318 273.452ZM340.893 267.232C341.307 267.376 341.833 267.206 342.052 266.851C342.271 266.495 342.106 266.081 341.692 265.938C341.273 265.792 340.749 265.967 340.53 266.323C340.311 266.678 340.474 267.087 340.893 267.232ZM345.465 269.861L344.196 269.421L345.02 268.086L343.816 267.669L342.993 269.004L342.087 268.69L341.55 269.56L342.456 269.874L340.426 273.163C339.798 274.174 340.353 274.961 341.315 275.272C341.7 275.401 341.997 275.425 342.167 275.427L342.503 274.456C342.413 274.442 342.244 274.423 342.051 274.356C341.66 274.221 341.382 273.983 341.769 273.356L343.659 270.292L344.928 270.731L345.465 269.861ZM345.829 276.886C347.572 277.49 349.421 276.736 350.484 275.013C351.553 273.279 351.123 271.735 349.38 271.13C347.636 270.526 345.788 271.28 344.718 273.014C343.655 274.737 344.085 276.281 345.829 276.886ZM346.394 275.977C345.255 275.582 345.276 274.502 345.936 273.432C346.594 272.366 347.685 271.643 348.824 272.038C349.956 272.431 349.928 273.522 349.27 274.588C348.61 275.658 347.526 276.369 346.394 275.977Z" fill="white"/>
<path d="M615.257 220.043L629.855 225.105L615.278 248.732L600.68 243.67L615.257 220.043Z" fill="#FF8AA2"/>
<path d="M608.895 232.178C611.857 227.378 616.986 223.988 622.532 222.566C620.942 219.582 618.12 217.134 614.227 215.785C605.005 212.587 593.398 216.721 588.272 225.028C583.147 233.335 586.462 242.642 595.684 245.84C599.577 247.19 603.892 247.217 607.955 246.193C605.783 242.146 605.933 236.979 608.895 232.178V232.178Z" fill="#FD6887"/>
<path d="M642.261 243.747C637.136 252.054 625.529 256.188 616.306 252.991C612.414 251.641 609.592 249.193 608.002 246.209C613.594 244.804 618.677 241.398 621.639 236.597C624.601 231.797 624.725 226.671 622.578 222.582C626.641 221.559 630.957 221.585 634.849 222.935C644.072 226.133 647.361 235.482 642.261 243.748L642.261 243.747Z" fill="#FD6887"/>
<rect width="401" height="30" transform="matrix(0.944817 0.327599 -0.525072 0.851058 283.146 157.325)" fill="#F7F8FD"/>
<rect width="400" height="233.651" rx="10" transform="matrix(0.938191 -0.346117 0.22937 0.973339 0 138.447)" fill="url(#paint1_linear_195175_3868)"/>
<mask id="mask1_195175_3868" style="mask-type:alpha" maskUnits="userSpaceOnUse" x="0" y="0" width="429" height="366">
<rect width="400" height="233.651" transform="matrix(0.938191 -0.346117 0.22937 0.973339 0 138.447)" fill="#ED713C"/>
</mask>
<g mask="url(#mask1_195175_3868)">
<ellipse opacity="0.1" cx="203.81" cy="143.492" rx="203.81" ry="143.492" transform="matrix(0.938191 -0.346117 0.22937 0.973339 -132.897 321.819)" fill="#333333"/>
<ellipse opacity="0.08" cx="203.81" cy="143.492" rx="203.81" ry="143.492" transform="matrix(0.938191 -0.346117 0.22937 0.973339 113.517 -94.2001)" fill="#333333"/>
</g>
<path d="M350.056 220.437C352.262 219.623 353.114 217.278 352.349 214.031C351.59 210.808 349.838 209.419 347.65 210.226C345.458 211.035 344.592 213.385 345.348 216.614C346.112 219.856 347.844 221.247 350.056 220.437ZM349.752 219.145C348.46 219.621 347.364 218.563 346.78 216.086C346.203 213.616 346.662 211.969 347.949 211.494C349.232 211.021 350.336 212.092 350.917 214.56C351.501 217.037 351.039 218.67 349.752 219.145ZM355.705 218.174L357.211 217.618L359.344 207.501L359.032 206.175L352.716 208.505L353.019 209.787L357.841 208.008L357.859 208.08L355.705 218.174ZM364.67 203.59L363.425 204.049L363.143 217.05L364.388 216.591L364.67 203.59ZM368.75 213.361L375.038 211.042L374.736 209.759L370.435 211.346L370.418 211.273L371.831 208.511C373.148 206.032 373.44 204.972 373.179 203.864C372.804 202.272 371.266 201.514 369.466 202.178C367.68 202.837 366.656 204.519 367.083 206.329L368.459 205.821C368.203 204.758 368.701 203.817 369.732 203.437C370.702 203.079 371.585 203.426 371.818 204.414C372.024 205.289 371.669 206.104 370.908 207.61L368.495 212.277L368.75 213.361ZM380.642 209.122C382.642 208.404 383.616 206.425 383.163 204.525C382.721 202.627 381.071 201.757 379.415 202.368C378.408 202.74 377.654 203.565 377.362 204.583L377.292 204.609C376.766 202.357 377.272 200.718 378.671 200.202C379.59 199.863 380.306 200.23 380.695 200.981L382.118 200.456C381.529 198.969 380.071 198.266 378.364 198.895C376.143 199.715 375.224 202.205 376.036 205.65C376.892 209.301 378.94 209.733 380.642 209.122ZM380.34 207.865C379.23 208.275 378.191 207.606 377.928 206.493C377.672 205.383 378.293 204.102 379.393 203.696C380.485 203.294 381.503 203.912 381.768 205.061C382.049 206.23 381.432 207.462 380.34 207.865Z" fill="white"/>
<path opacity="0.9" d="M85.6123 317.963C87.7206 317.186 88.4966 314.885 87.7337 311.647C86.9765 308.434 85.3027 307.011 83.2131 307.782C81.1235 308.553 80.3345 310.885 81.0917 314.098C81.8546 317.335 83.5041 318.741 85.6123 317.963ZM85.3615 316.899C83.9715 317.412 82.819 316.264 82.2112 313.685C81.6045 311.11 82.0788 309.337 83.4594 308.827C84.84 308.318 86.0076 309.486 86.6143 312.06C87.2221 314.64 86.7514 316.386 85.3615 316.899ZM94.2906 314.762C96.3989 313.984 97.1749 311.683 96.412 308.446C95.6548 305.233 93.981 303.809 91.8914 304.58C89.8017 305.351 89.0128 307.683 89.77 310.896C90.5329 314.134 92.1824 315.54 94.2906 314.762ZM94.0397 313.697C92.6498 314.21 91.4972 313.062 90.8894 310.483C90.2828 307.909 90.757 306.135 92.1377 305.626C93.5183 305.116 94.6859 306.284 95.2925 308.859C95.9003 311.438 95.4297 313.184 94.0397 313.697ZM102.969 311.56C105.077 310.782 105.853 308.482 105.09 305.244C104.333 302.031 102.659 300.608 100.57 301.379C98.48 302.15 97.6911 304.482 98.4483 307.695C99.2112 310.932 100.861 312.338 102.969 311.56ZM102.718 310.496C101.328 311.008 100.176 309.861 99.5677 307.282C98.961 304.707 99.4353 302.933 100.816 302.424C102.197 301.915 103.364 303.083 103.971 305.657C104.579 308.236 104.108 309.983 102.718 310.496ZM111.647 308.359C113.755 307.581 114.531 305.28 113.769 302.043C113.011 298.83 111.338 297.406 109.248 298.177C107.158 298.948 106.369 301.28 107.127 304.493C107.889 307.73 109.539 309.136 111.647 308.359ZM111.396 307.294C110.006 307.807 108.854 306.659 108.246 304.08C107.639 301.506 108.114 299.732 109.494 299.222C110.875 298.713 112.042 299.881 112.649 302.456C113.257 305.035 112.786 306.781 111.396 307.294ZM124.489 303.621C126.597 302.843 127.373 300.543 126.61 297.305C125.853 294.092 124.179 292.669 122.089 293.44C120 294.211 119.211 296.542 119.968 299.756C120.731 302.993 122.38 304.399 124.489 303.621ZM124.238 302.556C122.848 303.069 121.695 301.922 121.087 299.343C120.481 296.768 120.955 294.994 122.336 294.485C123.716 293.976 124.884 295.144 125.491 297.718C126.098 300.297 125.628 302.044 124.238 302.556ZM133.167 300.42C135.275 299.642 136.051 297.341 135.288 294.104C134.531 290.891 132.857 289.467 130.768 290.238C128.678 291.009 127.889 293.341 128.646 296.554C129.409 299.791 131.059 301.197 133.167 300.42ZM132.916 299.355C131.526 299.868 130.374 298.72 129.766 296.141C129.159 293.567 129.633 291.793 131.014 291.283C132.395 290.774 133.562 291.942 134.169 294.517C134.777 297.096 134.306 298.842 132.916 299.355ZM141.845 297.218C143.953 296.44 144.729 294.139 143.967 290.902C143.209 287.689 141.536 286.266 139.446 287.037C137.356 287.807 136.567 290.139 137.325 293.352C138.087 296.59 139.737 297.996 141.845 297.218ZM141.594 296.153C140.204 296.666 139.052 295.519 138.444 292.939C137.837 290.365 138.312 288.591 139.692 288.082C141.073 287.572 142.24 288.741 142.847 291.315C143.455 293.894 142.984 295.641 141.594 296.153ZM150.523 294.016C152.632 293.239 153.408 290.938 152.645 287.7C151.888 284.487 150.214 283.064 148.124 283.835C146.035 284.606 145.246 286.938 146.003 290.151C146.766 293.388 148.415 294.794 150.523 294.016ZM150.273 292.952C148.883 293.465 147.73 292.317 147.122 289.738C146.516 287.163 146.99 285.39 148.371 284.88C149.751 284.371 150.919 285.539 151.525 288.113C152.133 290.693 151.663 292.439 150.273 292.952ZM163.365 289.279C165.473 288.501 166.249 286.2 165.486 282.963C164.729 279.75 163.055 278.327 160.966 279.098C158.876 279.868 158.087 282.2 158.844 285.413C159.607 288.651 161.257 290.057 163.365 289.279ZM163.114 288.214C161.724 288.727 160.572 287.58 159.964 285C159.357 282.426 159.831 280.652 161.212 280.143C162.593 279.633 163.76 280.802 164.367 283.376C164.975 285.955 164.504 287.701 163.114 288.214ZM172.043 286.077C174.151 285.299 174.927 282.999 174.165 279.761C173.407 276.548 171.734 275.125 169.644 275.896C167.554 276.667 166.765 278.999 167.523 282.212C168.285 285.449 169.935 286.855 172.043 286.077ZM171.792 285.013C170.402 285.525 169.25 284.378 168.642 281.799C168.035 279.224 168.51 277.451 169.89 276.941C171.271 276.432 172.438 277.6 173.045 280.174C173.653 282.754 173.182 284.5 171.792 285.013ZM180.721 282.876C182.83 282.098 183.606 279.797 182.843 276.56C182.086 273.347 180.412 271.923 178.322 272.694C176.233 273.465 175.444 275.797 176.201 279.01C176.964 282.248 178.613 283.653 180.721 282.876ZM180.471 281.811C179.081 282.324 177.928 281.176 177.32 278.597C176.714 276.023 177.188 274.249 178.569 273.74C179.949 273.23 181.117 274.398 181.723 276.973C182.331 279.552 181.861 281.298 180.471 281.811ZM189.4 279.674C191.508 278.896 192.284 276.596 191.521 273.358C190.764 270.145 189.09 268.722 187.001 269.493C184.911 270.264 184.122 272.595 184.879 275.809C185.642 279.046 187.292 280.452 189.4 279.674ZM189.149 278.61C187.759 279.122 186.606 277.975 185.999 275.396C185.392 272.821 185.866 271.047 187.247 270.538C188.627 270.029 189.795 271.197 190.402 273.771C191.009 276.35 190.539 278.097 189.149 278.61ZM202.241 274.937C204.35 274.159 205.125 271.858 204.363 268.621C203.605 265.408 201.932 263.984 199.842 264.755C197.752 265.526 196.963 267.858 197.721 271.071C198.484 274.308 200.133 275.714 202.241 274.937ZM201.99 273.872C200.6 274.385 199.448 273.237 198.84 270.658C198.233 268.084 198.708 266.31 200.088 265.801C201.469 265.291 202.637 266.459 203.243 269.034C203.851 271.613 203.38 273.359 201.99 273.872ZM210.92 271.735C213.028 270.957 213.804 268.657 213.041 265.419C212.284 262.206 210.61 260.783 208.52 261.554C206.431 262.325 205.642 264.656 206.399 267.87C207.162 271.107 208.811 272.513 210.92 271.735ZM210.669 270.67C209.279 271.183 208.126 270.036 207.518 267.457C206.912 264.882 207.386 263.108 208.767 262.599C210.147 262.09 211.315 263.258 211.921 265.832C212.529 268.411 212.059 270.158 210.669 270.67ZM219.598 268.533C221.706 267.756 222.482 265.455 221.719 262.218C220.962 259.004 219.288 257.581 217.199 258.352C215.109 259.123 214.32 261.455 215.077 264.668C215.84 267.905 217.49 269.311 219.598 268.533ZM219.347 267.469C217.957 267.982 216.804 266.834 216.197 264.255C215.59 261.681 216.064 259.907 217.445 259.397C218.825 258.888 219.993 260.056 220.6 262.631C221.208 265.21 220.737 266.956 219.347 267.469ZM228.276 265.332C230.384 264.554 231.16 262.253 230.397 259.016C229.64 255.803 227.966 254.38 225.877 255.151C223.787 255.921 222.998 258.253 223.755 261.466C224.518 264.704 226.168 266.11 228.276 265.332ZM228.025 264.267C226.635 264.78 225.483 263.633 224.875 261.053C224.268 258.479 224.742 256.705 226.123 256.196C227.504 255.686 228.671 256.855 229.278 259.429C229.886 262.008 229.415 263.755 228.025 264.267Z" fill="white"/>
<path d="M313.631 60.324L328.126 54.9763L334.494 81.9981L319.999 87.3457L313.631 60.324Z" fill="#FF5F00"/>
<path d="M313.403 104.563L312.728 101.698C312.469 100.6 311.656 100.122 310.551 100.529C309.999 100.733 309.446 101.145 309.178 101.918C308.732 101.512 308.205 101.395 307.514 101.65C307.054 101.82 306.628 102.132 306.383 102.793L306.248 102.221L305.282 102.577L306.362 107.16L307.328 106.804L306.732 104.273C306.541 103.462 306.865 102.927 307.509 102.689C308.153 102.452 308.577 102.763 308.757 103.526L309.353 106.057L310.32 105.7L309.723 103.17C309.532 102.358 309.902 101.807 310.5 101.586C311.145 101.348 311.568 101.659 311.748 102.423L312.344 104.953L313.403 104.563V104.563ZM326.634 94.6999L325.07 95.2771L324.743 93.8926L323.777 94.2491L324.103 95.6336L323.229 95.9561L323.443 96.863L324.317 96.5405L324.812 98.6414C325.059 99.6918 325.62 100.159 326.724 99.752C327.139 99.5992 327.565 99.2864 327.842 98.9765L327.363 98.219C327.132 98.5117 326.822 98.6784 326.591 98.7633C326.131 98.933 325.88 98.7145 325.767 98.2369L325.283 96.184L326.848 95.6068L326.634 94.6999V94.6999ZM334.803 91.5823C334.251 91.786 333.95 92.2085 333.81 92.6753L333.675 92.1024L332.709 92.4589L333.789 97.0421L334.755 96.6855L334.147 94.1076C333.967 93.3438 334.188 92.7953 334.786 92.5746C334.971 92.5067 335.212 92.4696 335.407 92.4493L335.458 91.3927C335.263 91.4128 334.987 91.5146 334.803 91.5825L334.803 91.5823ZM322.537 96.6267C321.998 96.4622 321.32 96.5568 320.629 96.8114C319.525 97.2188 318.924 98.0633 319.138 98.9704C319.318 99.7344 319.971 99.9602 320.971 99.747L321.443 99.6251C321.971 99.5336 322.281 99.575 322.337 99.8138C322.416 100.148 322.104 100.522 321.46 100.76C320.816 100.998 320.253 100.946 319.875 100.826L319.595 101.76C320.191 101.955 320.926 101.891 321.616 101.636C322.905 101.161 323.495 100.269 323.292 99.4095C323.101 98.5978 322.402 98.3888 321.447 98.5853L320.976 98.7072C320.551 98.8122 320.206 98.8357 320.139 98.5493C320.06 98.215 320.337 97.9053 320.843 97.7185C321.395 97.5148 322.004 97.5496 322.314 97.5911L322.537 96.6267V96.6267ZM348.102 86.6762C347.55 86.88 347.249 87.3022 347.109 87.769L346.974 87.1962L346.008 87.5527L347.088 92.1358L348.054 91.7793L347.446 89.2013C347.266 88.4375 347.487 87.8889 348.085 87.6683C348.27 87.6003 348.511 87.5633 348.706 87.543L348.758 86.4864C348.562 86.5065 348.286 86.6083 348.102 86.6762V86.6762ZM336.332 93.6131C336.658 94.9975 337.815 95.6606 339.241 95.1343C339.885 94.8966 340.312 94.5838 340.682 94.0321L340.031 93.3902C339.73 93.8125 339.396 94.0914 338.981 94.2442C338.199 94.5328 337.512 94.1636 337.298 93.2565C337.096 92.3973 337.513 91.6205 338.284 91.2843C338.698 91.1315 339.1 91.1388 339.536 91.2896L339.804 90.3083C339.254 90.0959 338.76 90.1225 338.116 90.3602C336.689 90.8865 336.005 92.2286 336.332 93.6131ZM345.259 90.3195L344.719 88.028L343.753 88.3845L343.888 88.9573C343.464 88.6467 342.948 88.5776 342.35 88.7983C341.107 89.2567 340.377 90.6158 340.703 92.0002C341.03 93.3847 342.232 94.0308 343.475 93.5724C344.119 93.3348 344.523 92.9264 344.698 92.3948L344.833 92.9676L345.799 92.6111L345.259 90.3195V90.3195ZM341.716 91.6268C341.524 90.8152 341.873 89.9601 342.701 89.6546C343.484 89.3659 344.182 89.7829 344.385 90.6421C344.576 91.4537 344.181 92.3258 343.399 92.6144C342.559 92.8721 341.907 92.4384 341.716 91.6268V91.6268ZM329.603 93.5009C328.314 93.9763 327.619 95.2706 327.956 96.7029C328.294 98.1352 329.439 98.7504 330.774 98.258C331.418 98.0204 332.017 97.5917 332.422 96.9754L331.793 96.4291C331.493 96.8513 331.078 97.212 330.618 97.3818C330.019 97.6025 329.353 97.5368 329.024 96.7759L332.291 95.5705L332.201 95.1888C331.899 93.6916 330.845 93.0425 329.603 93.501L329.603 93.5009ZM329.805 94.3602C330.403 94.1395 330.908 94.3687 331.169 95.051L328.868 95.8998C328.813 95.2452 329.115 94.6148 329.805 94.3602ZM354.141 87.043L353.173 82.9373L352.207 83.2938L352.769 85.6808C352.346 85.3702 351.829 85.3011 351.231 85.5218C349.989 85.9802 349.259 87.3393 349.585 88.7237C349.911 90.1082 351.114 90.7543 352.356 90.2959C353.001 90.0582 353.404 89.6499 353.579 89.1183L353.714 89.6911L354.681 89.3346L354.141 87.043V87.043ZM350.597 88.3502C350.406 87.5386 350.755 86.6836 351.583 86.378C352.365 86.0894 353.064 86.5063 353.266 87.3656C353.457 88.1772 353.063 89.0492 352.281 89.3378C351.441 89.5956 350.789 89.1618 350.597 88.3502V88.3502ZM318.293 100.268L317.753 97.9764L316.786 98.3329L316.921 98.9058C316.498 98.5951 315.982 98.5261 315.383 98.7468C314.141 99.2052 313.411 100.564 313.737 101.949C314.063 103.333 315.266 103.979 316.508 103.521C317.153 103.283 317.557 102.875 317.731 102.343L317.866 102.916L318.833 102.56L318.293 100.268V100.268ZM314.703 101.592C314.512 100.781 314.861 99.9255 315.689 99.6199C316.471 99.3313 317.17 99.7482 317.373 100.607C317.564 101.419 317.169 102.291 316.387 102.58C315.547 102.838 314.895 102.404 314.703 101.592V101.592Z" fill="white"/>
<path d="M317.735 73.4955C316.441 68.0052 317.779 62.2188 320.855 57.6587C317.509 56.4027 313.639 56.3254 309.774 57.7514C300.616 61.1299 295.018 71.5495 297.257 81.0502C299.496 90.5507 308.716 95.504 317.874 92.1255C321.739 90.6995 324.956 88.0078 327.223 84.6805C322.673 82.9863 319.029 78.9857 317.735 73.4955V73.4955Z" fill="#E51D37"/>
<path d="M350.868 61.2724C353.106 70.7729 347.509 81.1926 338.351 84.571C334.486 85.9971 330.616 85.9198 327.269 84.6636C330.392 80.0868 331.684 74.3172 330.39 68.827C329.096 63.3368 325.463 59.3838 320.901 57.6418C323.168 54.3148 326.386 51.6231 330.251 50.197C339.409 46.8186 348.64 51.8194 350.868 61.2723L350.868 61.2724Z" fill="#F79E1B"/>
<path d="M50.1271 179.3L47.1131 166.511L51.0479 165.059L58.7591 173.869L58.9786 173.788L56.4519 163.065L58.7148 162.231L61.7287 175.02L57.7771 176.478L50.0659 167.668L49.8295 167.756L52.3562 178.478L50.1271 179.3ZM63.376 162.834C62.9144 163.005 62.5421 163.009 62.2591 162.846C61.9847 162.668 61.802 162.387 61.7112 162.001C61.6204 161.616 61.653 161.261 61.8091 160.937C61.9765 160.608 62.291 160.359 62.7525 160.189C63.2029 160.023 63.5639 160.023 63.8356 160.189C64.1186 160.351 64.3055 160.625 64.3963 161.011C64.4871 161.396 64.4502 161.759 64.2856 162.099C64.1295 162.423 63.8263 162.668 63.376 162.834ZM65.0249 173.804L63.2125 166.113L61.929 166.586L61.4996 164.764L65.1304 163.425L67.3723 172.938L65.0249 173.804ZM70.0776 171.94L67.0637 159.151L69.411 158.285L71.2648 166.151L73.7126 160.259L76.1612 159.355L73.9908 164.555L79.1461 168.595L76.4948 169.573L72.3726 166.257L71.3763 166.624L72.4249 171.074L70.0776 171.94ZM84.6895 166.911C83.6087 167.31 82.6431 167.419 81.7927 167.237C80.9396 167.044 80.2279 166.647 79.6577 166.045C79.0988 165.438 78.7202 164.715 78.5221 163.874L78.4354 163.506C78.2289 162.63 78.2346 161.745 78.4525 160.852C78.6817 159.955 79.1141 159.142 79.7498 158.412C80.3968 157.679 81.2437 157.118 82.2908 156.732C83.3265 156.35 84.2696 156.25 85.12 156.431C85.9817 156.608 86.6976 156.998 87.2678 157.6C87.8492 158.198 88.2432 158.935 88.4496 159.811L88.5363 160.179C88.7345 161.02 88.7246 161.887 88.5067 162.78C88.3001 163.669 87.8803 164.484 87.2474 165.225C86.6117 165.955 85.7591 166.517 84.6895 166.911ZM84.1982 164.826C85.0538 164.511 85.6408 163.99 85.959 163.263C86.2857 162.52 86.3472 161.717 86.1435 160.852C85.9399 159.988 85.5342 159.357 84.9264 158.959C84.3187 158.561 83.6039 158.514 82.7821 158.817C81.949 159.124 81.3634 159.652 81.0254 160.398C80.6875 161.145 80.6203 161.951 80.824 162.815C81.0277 163.679 81.4221 164.314 82.0073 164.721C82.601 165.111 83.3313 165.146 84.1982 164.826ZM91.7834 163.933L89.1988 152.965L88.0505 153.389L87.6211 151.566L91.1168 150.277L94.1307 163.067L91.7834 163.933ZM99.469 161.364C98.4558 161.738 97.5819 161.768 96.8473 161.455C96.124 161.138 95.6481 160.494 95.4197 159.525C95.1747 158.486 95.3547 157.588 95.9596 156.831C96.573 156.059 97.4933 155.447 98.7205 154.994L100.595 154.302L100.574 154.215C100.318 153.128 99.6612 152.78 98.603 153.171C98.3215 153.275 97.9851 153.405 97.5939 153.562C97.2026 153.719 96.807 153.884 96.4072 154.057C96.0159 154.214 95.6654 154.363 95.3557 154.502L94.8685 152.435C95.243 152.259 95.6921 152.061 96.2158 151.843C96.7507 151.62 97.2433 151.425 97.6936 151.259C99.1009 150.74 100.229 150.648 101.079 150.982C101.937 151.3 102.522 152.119 102.833 153.439L104.224 159.343L102.367 160.028L101.937 158.206C101.845 159.738 101.023 160.791 99.469 161.364ZM99.7189 159.386C100.034 159.27 100.319 159.102 100.573 158.881C100.824 158.649 101.005 158.353 101.116 157.995C101.236 157.62 101.247 157.172 101.148 156.65L100.938 155.756L99.0294 156.46C98.489 156.66 98.1055 156.954 97.8788 157.342C97.6607 157.714 97.6025 158.117 97.7043 158.549C97.8089 158.993 98.0336 159.297 98.3784 159.462C98.7317 159.611 99.1785 159.586 99.7189 159.386ZM113.001 156.105L110.503 145.505L106.94 146.82L106.424 144.63L115.948 141.116L116.464 143.306L112.901 144.621L115.399 155.22L113.001 156.105ZM123.735 152.507C122.947 152.798 122.221 152.913 121.558 152.853C120.907 152.788 120.329 152.595 119.825 152.273C119.329 151.936 118.911 151.512 118.571 151.003C118.242 150.49 118.006 149.929 117.863 149.322L117.784 148.989C117.636 148.358 117.588 147.716 117.642 147.061C117.707 146.402 117.876 145.769 118.149 145.16C118.433 144.548 118.83 144.001 119.341 143.521C119.849 143.029 120.48 142.643 121.235 142.365C122.225 142 123.106 141.922 123.878 142.133C124.647 142.331 125.287 142.736 125.798 143.348C126.318 143.943 126.677 144.661 126.875 145.502L127.081 146.378L120.191 148.92C120.446 149.639 120.824 150.153 121.326 150.463C121.838 150.769 122.483 150.779 123.26 150.492C123.823 150.284 124.257 149.997 124.562 149.631C124.876 149.248 125.042 148.863 125.061 148.476L127.222 147.678C127.251 148.734 126.958 149.699 126.344 150.573C125.73 151.447 124.86 152.092 123.735 152.507ZM121.709 144.38C121.045 144.625 120.561 145.013 120.258 145.544C119.955 146.075 119.827 146.699 119.874 147.418L124.484 145.718C124.234 145.073 123.873 144.629 123.399 144.385C122.937 144.137 122.374 144.135 121.709 144.38ZM133.422 148.895C132.161 149.36 131.105 149.451 130.255 149.168C129.414 148.869 128.861 148.235 128.596 147.267L130.707 146.488C130.809 146.818 131.05 147.06 131.428 147.212C131.815 147.349 132.346 147.292 133.022 147.043C133.574 146.839 133.994 146.57 134.282 146.235C134.57 145.901 134.671 145.552 134.586 145.19C134.512 144.875 134.325 144.677 134.024 144.597C133.733 144.502 133.274 144.531 132.65 144.686L131.819 144.897C130.755 145.162 129.89 145.151 129.223 144.864C128.567 144.573 128.143 144.019 127.95 143.201C127.799 142.559 127.828 141.957 128.039 141.397C128.247 140.826 128.6 140.327 129.1 139.901C129.608 139.46 130.222 139.107 130.942 138.841C132.068 138.426 133.042 138.352 133.864 138.62C134.683 138.876 135.225 139.489 135.49 140.458L133.379 141.236C133.268 140.922 133.039 140.702 132.691 140.576C132.355 140.446 131.911 140.483 131.359 140.687C130.864 140.869 130.504 141.11 130.281 141.408C130.057 141.706 129.983 142.013 130.057 142.329C130.129 142.632 130.291 142.826 130.543 142.911C130.796 142.996 131.182 142.974 131.702 142.845L132.534 142.634C133.631 142.356 134.548 142.354 135.286 142.628C136.023 142.902 136.492 143.465 136.693 144.317C136.842 144.948 136.802 145.559 136.575 146.151C136.356 146.727 135.978 147.254 135.442 147.731C134.906 148.208 134.232 148.596 133.422 148.895ZM139.411 146.362L136.827 135.394L135.678 135.818L135.249 133.996L138.745 132.706L141.759 145.496L139.411 146.362ZM147.097 143.793C146.084 144.167 145.21 144.197 144.475 143.884C143.752 143.567 143.276 142.924 143.048 141.954C142.803 140.915 142.983 140.017 143.587 139.26C144.201 138.488 145.121 137.876 146.348 137.423L148.223 136.731L148.202 136.644C147.946 135.558 147.289 135.21 146.231 135.6C145.949 135.704 145.613 135.834 145.222 135.991C144.83 136.148 144.435 136.313 144.035 136.486C143.644 136.643 143.293 136.792 142.984 136.931L142.496 134.864C142.871 134.688 143.32 134.49 143.844 134.272C144.379 134.049 144.871 133.855 145.321 133.688C146.729 133.169 147.857 133.077 148.707 133.411C149.565 133.729 150.15 134.548 150.461 135.868L151.852 141.772L149.994 142.457L149.565 140.635C149.473 142.167 148.651 143.22 147.097 143.793ZM147.347 141.815C147.662 141.699 147.947 141.531 148.201 141.31C148.452 141.078 148.633 140.782 148.744 140.424C148.864 140.05 148.875 139.601 148.776 139.079L148.566 138.186L146.657 138.89C146.117 139.089 145.733 139.383 145.507 139.771C145.289 140.144 145.23 140.546 145.332 140.978C145.437 141.422 145.661 141.726 146.006 141.891C146.36 142.04 146.806 142.015 147.347 141.815Z" fill="white"/>
<rect width="41.9048" height="27.9365" rx="5" transform="matrix(0.938191 -0.346117 0.22937 0.973339 60.7891 231.556)" fill="url(#paint2_radial_195175_3868)"/>
<path fill-rule="evenodd" clip-rule="evenodd" d="M80.5099 224.575L77.8162 233.292C77.8162 233.292 81.0287 238.866 80.5374 244.84L86.7895 251.223L89.274 241.617C89.274 241.617 86.48 237.82 86.5528 230.069C86.5528 230.069 80.5099 224.575 80.5099 224.575Z" stroke="#C7C7B6" stroke-width="1.3" stroke-linejoin="bevel"/>
<path d="M62.6039 239.259L77.8929 233.619" stroke="#C7C7B6" stroke-width="1.3" stroke-linejoin="bevel"/>
<path d="M86.1927 230.557L101.919 224.755" stroke="#C7C7B6" stroke-width="1.3" stroke-linejoin="bevel"/>
<path d="M65.1673 250.136L80.4564 244.495" stroke="#C7C7B6" stroke-width="1.3" stroke-linejoin="bevel"/>
<path d="M88.7552 241.433L104.481 235.632" stroke="#C7C7B6" stroke-width="1.3" stroke-linejoin="bevel"/>
<defs>
<linearGradient id="paint0_linear_195175_3868" x1="70.3448" y1="-36.8921" x2="112.395" y2="290.643" gradientUnits="userSpaceOnUse">
<stop stop-color="#E23B51"/>
<stop offset="1" stop-color="#8A3B45"/>
</linearGradient>
<linearGradient id="paint1_linear_195175_3868" x1="70.3448" y1="-36.8922" x2="112.396" y2="290.644" gradientUnits="userSpaceOnUse">
<stop stop-color="#E23B51"/>
<stop offset="1" stop-color="#8A3B45"/>
</linearGradient>
<radialGradient id="paint2_radial_195175_3868" cx="0" cy="0" r="1" gradientUnits="userSpaceOnUse" gradientTransform="translate(24.0639 10.1763) rotate(141.302) scale(28.4063 28.1909)">
<stop stop-color="white"/>
<stop offset="1" stop-color="#DDDCDA"/>
</radialGradient>
</defs>
</svg>
