<svg width="300" height="623" viewBox="0 0 300 623" fill="none" xmlns="http://www.w3.org/2000/svg">
<path d="M0 80.211C0 78.6693 1.24983 77.4194 2.79156 77.4194V77.4194C3.30548 77.4194 3.72208 77.836 3.72208 78.35V99.5658C3.72208 100.08 3.30548 100.496 2.79156 100.496V100.496C1.24983 100.496 0 99.2465 0 97.7048V80.211Z" fill="#E51D37"/>
<path d="M0 120.596C0 119.362 0.99986 118.362 2.23325 118.362H2.97767C3.3888 118.362 3.72208 118.696 3.72208 119.107V157.816C3.72208 158.228 3.3888 158.561 2.97767 158.561H2.23325C0.99986 158.561 0 157.561 0 156.328V120.596Z" fill="#E51D37"/>
<path d="M0 174.194C0 172.96 0.99986 171.96 2.23325 171.96H2.97767C3.3888 171.96 3.72208 172.294 3.72208 172.705V211.414C3.72208 211.826 3.3888 212.159 2.97767 212.159H2.23325C0.99986 212.159 0 211.159 0 209.926V174.194Z" fill="#E51D37"/>
<path d="M297.022 136.973C297.022 136.562 297.356 136.228 297.767 136.228V136.228C299 136.228 300 137.228 300 138.462V200.248C300 201.482 299 202.481 297.767 202.481V202.481C297.356 202.481 297.022 202.148 297.022 201.737V136.973Z" fill="#E51D37"/>
<path fill-rule="evenodd" clip-rule="evenodd" d="M255.335 0H44.6654C20.8199 0 1.48926 19.3307 1.48926 43.1762V579.156C1.48926 603.002 20.8199 622.333 44.6654 622.333H255.335C279.181 622.333 298.512 603.002 298.512 579.156V43.1762C298.512 19.3307 279.181 0 255.335 0ZM10.4223 43.1762C10.4223 24.2642 25.7534 8.933 44.6654 8.933H66.316C68.8813 9.83572 70.72 12.2803 70.72 15.1542C70.72 24.2579 78.1 31.6377 87.2035 31.6377H212.053C221.156 31.6377 228.536 24.2579 228.536 15.1542C228.536 12.2803 230.375 9.83572 232.94 8.933H255.335C274.247 8.933 289.579 24.2642 289.579 43.1762V579.156C289.579 598.068 274.247 613.4 255.335 613.4H44.6654C25.7534 613.4 10.4223 598.068 10.4223 579.156V43.1762Z" fill="#E51D37" fill-opacity="0.15"/>
<rect x="133.251" y="16.3772" width="32.7543" height="2.97767" rx="1.48883" fill="#E51D37"/>
<circle cx="181.638" cy="17.866" r="3.72208" fill="#E51D37"/>
<mask id="mask0_195175_3865" style="mask-type:alpha" maskUnits="userSpaceOnUse" x="10" y="8" width="280" height="606">
<path fill-rule="evenodd" clip-rule="evenodd" d="M10.4684 41.3757C10.4375 41.972 10.4219 42.5723 10.4219 43.1763V579.156C10.4219 598.068 25.753 613.4 44.6651 613.4H255.335C274.247 613.4 289.578 598.068 289.578 579.156V43.1763C289.578 43.1024 289.578 43.0286 289.578 42.9548C289.458 24.1448 274.173 8.93311 255.335 8.93311H232.94C230.375 9.83582 228.536 12.2804 228.536 15.1543C228.536 24.258 221.156 31.6378 212.053 31.6378H87.2031C78.0996 31.6378 70.7196 24.258 70.7196 15.1543C70.7196 12.2804 68.8809 9.83582 66.3156 8.93311H44.6651C36.1322 8.93311 28.3283 12.0541 22.3326 17.2168C20.0228 19.2056 17.9814 21.4975 16.2701 24.0306C12.8923 29.0304 10.8002 34.9703 10.4684 41.3757Z" fill="black"/>
</mask>
<g mask="url(#mask0_195175_3865)">
<rect x="10.4219" y="8.93311" width="279.156" height="604.466" fill="url(#paint0_linear_195175_3865)"/>
</g>
<defs>
<linearGradient id="paint0_linear_195175_3865" x1="246.309" y1="90.5361" x2="-85.4631" y2="267.148" gradientUnits="userSpaceOnUse">
<stop stop-color="#EB3850"/>
<stop offset="1" stop-color="#CB162E"/>
</linearGradient>
</defs>
</svg>
