<svg width="32" height="32" viewBox="0 0 32 32" fill="none" xmlns="http://www.w3.org/2000/svg">
<path d="M16.0003 29.3334C23.3641 29.3334 29.3337 23.3638 29.3337 16C29.3337 8.63622 23.3641 2.66669 16.0003 2.66669C8.63653 2.66669 2.66699 8.63622 2.66699 16C2.66699 23.3638 8.63653 29.3334 16.0003 29.3334Z" stroke="url(#paint0_linear_195175_3667)" stroke-width="2" stroke-linecap="round" stroke-linejoin="round"/>
<path d="M10.667 18.6667C10.667 18.6667 12.667 21.3334 16.0003 21.3334C19.3337 21.3334 21.3337 18.6667 21.3337 18.6667" stroke="url(#paint1_linear_195175_3667)" stroke-width="2" stroke-linecap="round" stroke-linejoin="round"/>
<path d="M12 12H12.0133" stroke="url(#paint2_linear_195175_3667)" stroke-width="2" stroke-linecap="round" stroke-linejoin="round"/>
<path d="M20 12H20.0133" stroke="url(#paint3_linear_195175_3667)" stroke-width="2" stroke-linecap="round" stroke-linejoin="round"/>
<defs>
<linearGradient id="paint0_linear_195175_3667" x1="25.2003" y1="6.26669" x2="7.73366" y2="26.4" gradientUnits="userSpaceOnUse">
<stop stop-color="#EB3850"/>
<stop offset="1" stop-color="#CB162E"/>
</linearGradient>
<linearGradient id="paint1_linear_195175_3667" x1="19.6803" y1="19.0267" x2="18.9494" y2="22.3968" gradientUnits="userSpaceOnUse">
<stop stop-color="#EB3850"/>
<stop offset="1" stop-color="#CB162E"/>
</linearGradient>
<linearGradient id="paint2_linear_195175_3667" x1="12.0113" y1="12.135" x2="11.9909" y2="12.1353" gradientUnits="userSpaceOnUse">
<stop stop-color="#EB3850"/>
<stop offset="1" stop-color="#CB162E"/>
</linearGradient>
<linearGradient id="paint3_linear_195175_3667" x1="20.0113" y1="12.135" x2="19.9909" y2="12.1353" gradientUnits="userSpaceOnUse">
<stop stop-color="#EB3850"/>
<stop offset="1" stop-color="#CB162E"/>
</linearGradient>
</defs>
</svg>
