<svg width="378" height="378" viewBox="0 0 378 378" fill="none" xmlns="http://www.w3.org/2000/svg">
<rect width="377.62" height="377.62" rx="80" fill="url(#paint0_linear_195175_3866)"/>
<g filter="url(#filter0_dd_195175_3866)">
<path fill-rule="evenodd" clip-rule="evenodd" d="M251.682 124.109C251.682 123.783 251.458 122.768 250.629 121.329C249.838 119.958 248.591 118.37 246.8 116.899C243.255 113.985 237.493 111.457 228.728 112.101C213.518 113.22 201.203 118.504 192.206 125.625C200.88 133.53 206.192 143.165 207.513 152.374C208.577 150.693 209.828 149.115 211.221 147.687C215.731 143.061 221.942 139.795 228.582 139.795H251.682V124.109ZM173.931 268.834C175.369 269.854 177.206 270.273 179.262 270.273H199.564C202.084 270.273 204.274 269.643 205.805 268.049C207.321 266.47 207.839 264.308 207.839 262.021V162.565C208.413 158.313 210.692 153.958 214.084 150.479C218.025 146.439 223.256 143.795 228.582 143.795H253.682H255.682V141.795V124.109C255.682 122.776 255.08 121.042 254.094 119.331C253.069 117.554 251.511 115.593 249.34 113.808C244.961 110.21 238.172 107.396 228.435 108.112C212.198 109.306 198.849 115.087 189.106 122.99C179.405 115.296 166.224 109.69 150.247 108.517C140.511 107.803 133.723 110.611 129.344 114.202C127.172 115.983 125.613 117.941 124.588 119.715C123.602 121.423 123 123.154 123 124.486V142.138V144.138H125H150.101C155.428 144.138 160.66 146.777 164.6 150.81C167.994 154.284 170.273 158.631 170.845 162.875V261.913C170.845 264.203 171.363 266.368 172.878 267.949C173.201 268.286 173.553 268.58 173.931 268.834ZM171.099 152.584C170.05 150.947 168.823 149.409 167.461 148.014C162.949 143.397 156.739 140.138 150.101 140.138H127V124.486C127 124.164 127.223 123.152 128.052 121.716C128.842 120.348 130.09 118.764 131.88 117.295C135.426 114.387 141.188 111.863 149.954 112.507C164.919 113.605 177.08 118.726 186.037 125.659C177.459 133.655 172.269 143.355 171.099 152.584ZM176.2 265.536C176.087 265.453 175.99 265.366 175.906 265.279C175.391 264.743 174.986 263.779 174.986 262.021V164.938C174.986 164.164 174.938 163.389 174.845 162.617V156.533C174.845 147.363 179.816 136.794 189.136 128.241C198.722 136.841 203.839 147.564 203.839 156.848V162.306C203.745 163.082 203.697 163.861 203.697 164.639V261.913C203.697 263.676 203.291 264.644 202.776 265.181C202.276 265.703 201.33 266.177 199.422 266.177H179.12C177.661 266.177 176.764 265.9 176.2 265.536Z" fill="white"/>
</g>
<defs>
<filter id="filter0_dd_195175_3866" x="113" y="108" width="152.682" height="182.273" filterUnits="userSpaceOnUse" color-interpolation-filters="sRGB">
<feFlood flood-opacity="0" result="BackgroundImageFix"/>
<feColorMatrix in="SourceAlpha" type="matrix" values="0 0 0 0 0 0 0 0 0 0 0 0 0 0 0 0 0 0 127 0" result="hardAlpha"/>
<feOffset dy="10"/>
<feGaussianBlur stdDeviation="5"/>
<feComposite in2="hardAlpha" operator="out"/>
<feColorMatrix type="matrix" values="0 0 0 0 0.65098 0 0 0 0 0.65098 0 0 0 0 0.654902 0 0 0 0.3 0"/>
<feBlend mode="normal" in2="BackgroundImageFix" result="effect1_dropShadow_195175_3866"/>
<feColorMatrix in="SourceAlpha" type="matrix" values="0 0 0 0 0 0 0 0 0 0 0 0 0 0 0 0 0 0 127 0" result="hardAlpha"/>
<feOffset dy="4"/>
<feGaussianBlur stdDeviation="2"/>
<feComposite in2="hardAlpha" operator="out"/>
<feColorMatrix type="matrix" values="0 0 0 0 0 0 0 0 0 0 0 0 0 0 0 0 0 0 0.25 0"/>
<feBlend mode="normal" in2="effect1_dropShadow_195175_3866" result="effect2_dropShadow_195175_3866"/>
<feBlend mode="normal" in="SourceGraphic" in2="effect2_dropShadow_195175_3866" result="shape"/>
</filter>
<linearGradient id="paint0_linear_195175_3866" x1="319.089" y1="50.9787" x2="71.7478" y2="336.082" gradientUnits="userSpaceOnUse">
<stop stop-color="#EB3850"/>
<stop offset="1" stop-color="#CB162E"/>
</linearGradient>
</defs>
</svg>
