<svg width="1920" height="557" viewBox="0 0 1920 557" fill="none" xmlns="http://www.w3.org/2000/svg">
<path opacity="0.05" d="M0 0C0 0 137.595 66.3012 231.956 88.5C347.337 115.644 420.774 76.4213 534.747 109C630.427 136.35 668.608 191.691 763.71 221C885.883 258.652 961.748 247.48 1089.45 253C1190.26 257.358 1249.99 277.694 1347.84 253C1436.38 230.657 1476.2 190.825 1556.35 147C1616.72 113.992 1641.48 72.076 1708.99 59C1748.4 51.3693 1772.42 51.0214 1811.75 59C1857.37 68.2541 1920 109 1920 109V315C1920 315 1846.78 229.801 1782.32 221C1701.01 209.897 1666.6 276.14 1594.26 315C1523.2 353.18 1492.27 394.313 1415.18 418C1364.13 433.685 1333.19 433.826 1280 438.5C1205.87 445.014 1163.28 447.848 1089.45 438.5C1022.6 430.036 987.196 413.91 921.839 397.5C850.616 379.617 811.021 368.257 739.766 350.5C682.588 336.251 650.766 327.165 593.11 315C536.162 302.984 503.63 299.372 446.454 288.5C377.539 275.395 337.152 274.494 270.366 253C199.57 230.215 158.594 215.652 97.272 173.5C55.7102 144.931 0 88.5 0 88.5V0Z" fill="url(#paint0_linear_191725_3631)"/>
<path opacity="0.05" d="M0 112C0 112 137.595 178.301 231.956 200.5C347.337 227.644 420.774 188.421 534.747 221C630.427 248.35 668.608 303.691 763.71 333C885.883 370.652 961.748 359.48 1089.45 365C1190.26 369.358 1249.99 389.694 1347.84 365C1436.38 342.657 1476.2 302.825 1556.35 259C1616.72 225.992 1641.48 184.076 1708.99 171C1748.4 163.369 1772.42 163.021 1811.75 171C1857.37 180.254 1920 221 1920 221V427C1920 427 1846.78 341.801 1782.32 333C1701.01 321.897 1666.6 388.14 1594.26 427C1523.2 465.18 1492.27 506.313 1415.18 530C1364.13 545.685 1333.19 545.826 1280 550.5C1205.87 557.014 1163.28 559.848 1089.45 550.5C1022.6 542.036 987.196 525.91 921.839 509.5C850.616 491.617 811.021 480.257 739.766 462.5C682.588 448.251 650.766 439.165 593.11 427C536.162 414.984 503.63 411.372 446.454 400.5C377.539 387.395 337.152 386.494 270.366 365C199.57 342.215 158.594 327.652 97.272 285.5C55.7102 256.931 0 200.5 0 200.5V112Z" fill="url(#paint1_linear_191725_3631)"/>
<path opacity="0.05" d="M0 57C0 57 137.595 123.301 231.956 145.5C347.337 172.644 420.774 133.421 534.747 166C630.427 193.35 668.608 248.691 763.71 278C885.883 315.652 961.748 304.48 1089.45 310C1190.26 314.358 1249.99 334.694 1347.84 310C1436.38 287.657 1476.2 247.825 1556.35 204C1616.72 170.992 1641.48 129.076 1708.99 116C1748.4 108.369 1772.42 108.021 1811.75 116C1857.37 125.254 1920 166 1920 166V372C1920 372 1846.78 286.801 1782.32 278C1701.01 266.897 1666.6 333.14 1594.26 372C1523.2 410.18 1492.27 451.313 1415.18 475C1364.13 490.685 1333.19 490.826 1280 495.5C1205.87 502.014 1163.28 504.848 1089.45 495.5C1022.6 487.036 987.196 470.91 921.839 454.5C850.616 436.617 811.021 425.257 739.766 407.5C682.588 393.251 650.766 384.165 593.11 372C536.162 359.984 503.63 356.372 446.454 345.5C377.539 332.395 337.152 331.494 270.366 310C199.57 287.215 158.594 272.652 97.272 230.5C55.7102 201.931 0 145.5 0 145.5V57Z" fill="url(#paint2_linear_191725_3631)"/>
<defs>
<linearGradient id="paint0_linear_191725_3631" x1="1920" y1="-0.000123582" x2="0" y2="-5.8683e-06" gradientUnits="userSpaceOnUse">
<stop stop-color="#E51D37"/>
<stop offset="1" stop-color="#E51D37" stop-opacity="0.25"/>
</linearGradient>
<linearGradient id="paint1_linear_191725_3631" x1="1920" y1="112" x2="0" y2="112" gradientUnits="userSpaceOnUse">
<stop stop-color="#E51D37"/>
<stop offset="1" stop-color="#E51D37" stop-opacity="0.25"/>
</linearGradient>
<linearGradient id="paint2_linear_191725_3631" x1="1916" y1="67" x2="4.45696e-10" y2="57" gradientUnits="userSpaceOnUse">
<stop stop-color="#E51D37"/>
<stop offset="1" stop-color="#E51D37" stop-opacity="0.25"/>
</linearGradient>
</defs>
</svg>
